ffmpeg started on 2025-06-19 at 12:03:25
Report written to "D:\Convert\FFMetrics\reports\psnr_report-6.txt"
Log level: 32
Command line:
ffmpeg -hide_banner -nostdin -i "G:\\\xc0\xed\xe8\xec\xe5\\[\xd2\xee\xef-4]\\Fate\\\xc0\xef\xee\xea\xf0\xe8\xf4\\Fate_Apocrypha_[18]_[AniLibria_TV]_[HDTVRip_720p]_HEVC.mkv" -i "G:\\\xc0\xed\xe8\xec\xe5\\[\xd2\xee\xef-4]\\Fate\\\xc0\xef\xee\xea\xf0\xe8\xf4\\Fate_Apocrypha_[18]_[AniLibria_TV]_[HDTVRip_720p].mkv" -lavfi "[0:v]settb=AVTB,setpts=PTS-STARTPTS,format=pix_fmts=yuv420p10,fps=24000/1001,scale=1280:720:flags=bicubic[main];[1:v]settb=AVTB,setpts=PTS-STARTPTS,format=pix_fmts=yuv420p,fps=24000/1001,scale=1280:720:flags=bicubic[ref];[main][ref]psnr=eof_action=endall:stats_file='D\\:/Convert/FFMetrics/logs/psnr_logfile-6.txt'" -f null -
Input #0, matroska,webm, from 'G:\Аниме\[Топ-4]\Fate\Апокриф\Fate_Apocrypha_[18]_[AniLibria_TV]_[HDTVRip_720p]_HEVC.mkv':
  Metadata:
    ENCODER         : Lavf61.7.100
  Duration: 00:24:00.11, start: -0.021000, bitrate: 615 kb/s
  Stream #0:0(jpn): Video: hevc (Main 10), yuv420p10le(tv, bt709, progressive), 1280x720 [SAR 1:1 DAR 16:9], 23.81 fps, 23.81 tbr, 1k tbn (default)
      Metadata:
        ENCODER         : Lavc61.19.100 libx265
        BPS             : 417858
        DURATION        : 00:24:00.012000000
        NUMBER_OF_FRAMES: 34524
        NUMBER_OF_BYTES : 75215089
        _STATISTICS_WRITING_APP: mkvpropedit v66.0.0 ('Josie') 64-bit
        _STATISTICS_WRITING_DATE_UTC: 2025-06-16 17:30:06
        _STATISTICS_TAGS: BPS DURATION NUMBER_OF_FRAMES NUMBER_OF_BYTES
  Stream #0:1(rus): Audio: aac (LC), 48000 Hz, stereo, fltp (default)
      Metadata:
        title           : Ados Amikiri Anzen Hekomi Silv
        ENCODER         : Lavc61.19.100 aac
        BPS             : 193394
        DURATION        : 00:24:00.085000000
        NUMBER_OF_FRAMES: 67505
        NUMBER_OF_BYTES : 34813113
        _STATISTICS_WRITING_APP: mkvpropedit v66.0.0 ('Josie') 64-bit
        _STATISTICS_WRITING_DATE_UTC: 2025-06-16 17:30:06
        _STATISTICS_TAGS: BPS DURATION NUMBER_OF_FRAMES NUMBER_OF_BYTES
  Stream #0:2(rus): Subtitle: ass (ssa) (default) (forced)
      Metadata:
        title           : Надписи
        BPS             : 425
        DURATION        : 00:00:03.080000000
        NUMBER_OF_FRAMES: 2
        NUMBER_OF_BYTES : 164
        _STATISTICS_WRITING_APP: mkvpropedit v66.0.0 ('Josie') 64-bit
        _STATISTICS_WRITING_DATE_UTC: 2025-06-16 17:30:06
        _STATISTICS_TAGS: BPS DURATION NUMBER_OF_FRAMES NUMBER_OF_BYTES
  Stream #0:3(rus): Subtitle: ass (ssa)
      Metadata:
        title           : Полные
        BPS             : 107
        DURATION        : 00:23:39.500000000
        NUMBER_OF_FRAMES: 268
        NUMBER_OF_BYTES : 19128
        _STATISTICS_WRITING_APP: mkvpropedit v66.0.0 ('Josie') 64-bit
        _STATISTICS_WRITING_DATE_UTC: 2025-06-16 17:30:06
        _STATISTICS_TAGS: BPS DURATION NUMBER_OF_FRAMES NUMBER_OF_BYTES
Input #1, matroska,webm, from 'G:\Аниме\[Топ-4]\Fate\Апокриф\Fate_Apocrypha_[18]_[AniLibria_TV]_[HDTVRip_720p].mkv':
  Metadata:
    encoder         : libebml v1.3.0 + libmatroska v1.4.1
    creation_time   : 2017-11-08T17:16:22.000000Z
  Duration: 00:24:00.09, start: 0.000000, bitrate: 1932 kb/s
  Stream #1:0: Video: h264 (Main), yuv420p(tv, bt709, progressive), 1280x720, SAR 1:1 DAR 16:9, 23.81 fps, 23.81 tbr, 1k tbn (default)
      Metadata:
        BPS             : 1525678
        BPS-eng         : 1525678
        DURATION        : 00:24:00.002000000
        DURATION-eng    : 00:24:00.002000000
        NUMBER_OF_FRAMES: 34524
        NUMBER_OF_FRAMES-eng: 34524
        NUMBER_OF_BYTES : 274622577
        NUMBER_OF_BYTES-eng: 274622577
        _STATISTICS_WRITING_APP: mkvmerge v7.3.0 ('Nouages') 64bit built on Oct 22 2014 18:53:34
        _STATISTICS_WRITING_APP-eng: mkvmerge v7.3.0 ('Nouages') 64bit built on Oct 22 2014 18:53:34
        _STATISTICS_WRITING_DATE_UTC: 2017-11-08 17:16:22
        _STATISTICS_WRITING_DATE_UTC-eng: 2017-11-08 17:16:22
        _STATISTICS_TAGS: BPS DURATION NUMBER_OF_FRAMES NUMBER_OF_BYTES
        _STATISTICS_TAGS-eng: BPS DURATION NUMBER_OF_FRAMES NUMBER_OF_BYTES
  Stream #1:1(rus): Audio: aac (LC), 48000 Hz, stereo, fltp (default)
      Metadata:
        title           : Ados Amikiri Anzen Hekomi Silv
        BPS             : 192092
        BPS-eng         : 192092
        DURATION        : 00:24:00.085000000
        DURATION-eng    : 00:24:00.085000000
        NUMBER_OF_FRAMES: 67504
        NUMBER_OF_FRAMES-eng: 67504
        NUMBER_OF_BYTES : 34578635
        NUMBER_OF_BYTES-eng: 34578635
        _STATISTICS_WRITING_APP: mkvmerge v7.3.0 ('Nouages') 64bit built on Oct 22 2014 18:53:34
        _STATISTICS_WRITING_APP-eng: mkvmerge v7.3.0 ('Nouages') 64bit built on Oct 22 2014 18:53:34
        _STATISTICS_WRITING_DATE_UTC: 2017-11-08 17:16:22
        _STATISTICS_WRITING_DATE_UTC-eng: 2017-11-08 17:16:22
        _STATISTICS_TAGS: BPS DURATION NUMBER_OF_FRAMES NUMBER_OF_BYTES
        _STATISTICS_TAGS-eng: BPS DURATION NUMBER_OF_FRAMES NUMBER_OF_BYTES
  Stream #1:2(jpn): Audio: aac (LC), 48000 Hz, stereo, fltp
      Metadata:
        title           : Оригинал
        BPS             : 209263
        BPS-eng         : 209263
        DURATION        : 00:24:00.063000000
        DURATION-eng    : 00:24:00.063000000
        NUMBER_OF_FRAMES: 67503
        NUMBER_OF_FRAMES-eng: 67503
        NUMBER_OF_BYTES : 37669058
        NUMBER_OF_BYTES-eng: 37669058
        _STATISTICS_WRITING_APP: mkvmerge v7.3.0 ('Nouages') 64bit built on Oct 22 2014 18:53:34
        _STATISTICS_WRITING_APP-eng: mkvmerge v7.3.0 ('Nouages') 64bit built on Oct 22 2014 18:53:34
        _STATISTICS_WRITING_DATE_UTC: 2017-11-08 17:16:22
        _STATISTICS_WRITING_DATE_UTC-eng: 2017-11-08 17:16:22
        _STATISTICS_TAGS: BPS DURATION NUMBER_OF_FRAMES NUMBER_OF_BYTES
        _STATISTICS_TAGS-eng: BPS DURATION NUMBER_OF_FRAMES NUMBER_OF_BYTES
  Stream #1:3(rus): Subtitle: ass (ssa) (default) (forced)
      Metadata:
        title           : Надписи
        BPS             : 425
        BPS-eng         : 425
        DURATION        : 00:00:03.080000000
        DURATION-eng    : 00:00:03.080000000
        NUMBER_OF_FRAMES: 2
        NUMBER_OF_FRAMES-eng: 2
        NUMBER_OF_BYTES : 164
        NUMBER_OF_BYTES-eng: 164
        _STATISTICS_WRITING_APP: mkvmerge v7.3.0 ('Nouages') 64bit built on Oct 22 2014 18:53:34
        _STATISTICS_WRITING_APP-eng: mkvmerge v7.3.0 ('Nouages') 64bit built on Oct 22 2014 18:53:34
        _STATISTICS_WRITING_DATE_UTC: 2017-11-08 17:16:22
        _STATISTICS_WRITING_DATE_UTC-eng: 2017-11-08 17:16:22
        _STATISTICS_TAGS: BPS DURATION NUMBER_OF_FRAMES NUMBER_OF_BYTES
        _STATISTICS_TAGS-eng: BPS DURATION NUMBER_OF_FRAMES NUMBER_OF_BYTES
  Stream #1:4(rus): Subtitle: ass (ssa)
      Metadata:
        title           : Полные
        BPS             : 107
        BPS-eng         : 107
        DURATION        : 00:23:39.500000000
        DURATION-eng    : 00:23:39.500000000
        NUMBER_OF_FRAMES: 268
        NUMBER_OF_FRAMES-eng: 268
        NUMBER_OF_BYTES : 19128
        NUMBER_OF_BYTES-eng: 19128
        _STATISTICS_WRITING_APP: mkvmerge v7.3.0 ('Nouages') 64bit built on Oct 22 2014 18:53:34
        _STATISTICS_WRITING_APP-eng: mkvmerge v7.3.0 ('Nouages') 64bit built on Oct 22 2014 18:53:34
        _STATISTICS_WRITING_DATE_UTC: 2017-11-08 17:16:22
        _STATISTICS_WRITING_DATE_UTC-eng: 2017-11-08 17:16:22
        _STATISTICS_TAGS: BPS DURATION NUMBER_OF_FRAMES NUMBER_OF_BYTES
        _STATISTICS_TAGS-eng: BPS DURATION NUMBER_OF_FRAMES NUMBER_OF_BYTES
  Stream #1:5: Attachment: ttf
      Metadata:
        filename        : ALBR.ttf
        mimetype        : application/x-truetype-font
  Stream #1:6: Attachment: ttf
      Metadata:
        filename        : 9511(1).ttf
        mimetype        : application/x-truetype-font
Stream mapping:
  Stream #0:0 (hevc) -> settb:default
  Stream #1:0 (h264) -> settb:default
  psnr:default -> Stream #0:0 (wrapped_avframe)
  Stream #0:1 -> #0:1 (aac (native) -> pcm_s16le (native))
Output #0, null, to 'pipe:':
  Metadata:
    encoder         : Lavf61.7.100
  Stream #0:0: Video: wrapped_avframe, yuv420p10le(tv, bt709, progressive), 1280x720 [SAR 1:1 DAR 16:9], q=2-31, 200 kb/s, 23.98 fps, 23.98 tbn
      Metadata:
        encoder         : Lavc61.19.100 wrapped_avframe
  Stream #0:1(rus): Audio: pcm_s16le, 48000 Hz, stereo, s16, 1536 kb/s (default)
      Metadata:
        title           : Ados Amikiri Anzen Hekomi Silv
        _STATISTICS_TAGS: BPS DURATION NUMBER_OF_FRAMES NUMBER_OF_BYTES
        BPS             : 193394
        DURATION        : 00:24:00.085000000
        NUMBER_OF_FRAMES: 67505
        NUMBER_OF_BYTES : 34813113
        _STATISTICS_WRITING_APP: mkvpropedit v66.0.0 ('Josie') 64-bit
        _STATISTICS_WRITING_DATE_UTC: 2025-06-16 17:30:06
        encoder         : Lavc61.19.100 pcm_s16le
frame=  539 fps=0.0 q=-0.0 size=N/A time=00:00:22.48 bitrate=N/A speed=44.2x    frame= 1077 fps=1058 q=-0.0 size=N/A time=00:00:44.91 bitrate=N/A speed=44.1x    frame= 1587 fps=1027 q=-0.0 size=N/A time=00:01:06.19 bitrate=N/A speed=42.8x    frame= 2041 fps=993 q=-0.0 size=N/A time=00:01:25.12 bitrate=N/A speed=41.4x    frame= 2467 fps=961 q=-0.0 size=N/A time=00:01:42.89 bitrate=N/A speed=40.1x    frame= 2907 fps=941 q=-0.0 size=N/A time=00:02:01.24 bitrate=N/A speed=39.2x    frame= 3329 fps=925 q=-0.0 size=N/A time=00:02:18.84 bitrate=N/A speed=38.6x    frame= 3672 fps=891 q=-0.0 size=N/A time=00:02:33.15 bitrate=N/A speed=37.1x    frame= 4055 fps=875 q=-0.0 size=N/A time=00:02:49.12 bitrate=N/A speed=36.5x    frame= 4549 fps=884 q=-0.0 size=N/A time=00:03:09.73 bitrate=N/A speed=36.9x    frame= 4976 fps=878 q=-0.0 size=N/A time=00:03:27.54 bitrate=N/A speed=36.6x    frame= 5527 fps=894 q=-0.0 size=N/A time=00:03:50.52 bitrate=N/A speed=37.3x    frame= 5982 fps=893 q=-0.0 size=N/A time=00:04:09.49 bitrate=N/A speed=37.2x    frame= 6504 fps=902 q=-0.0 size=N/A time=00:04:31.27 bitrate=N/A speed=37.6x    frame= 7102 fps=918 q=-0.0 size=N/A time=00:04:56.25 bitrate=N/A speed=38.3x    frame= 7633 fps=926 q=-0.0 size=N/A time=00:05:18.35 bitrate=N/A speed=38.6x    frame= 8191 fps=936 q=-0.0 size=N/A time=00:05:41.63 bitrate=N/A speed=  39x    frame= 8776 fps=946 q=-0.0 size=N/A time=00:06:06.03 bitrate=N/A speed=39.4x    frame= 9332 fps=953 q=-0.0 size=N/A time=00:06:29.22 bitrate=N/A speed=39.8x    frame= 9938 fps=965 q=-0.0 size=N/A time=00:06:54.49 bitrate=N/A speed=40.2x    frame=10569 fps=977 q=-0.0 size=N/A time=00:07:20.81 bitrate=N/A speed=40.7x    frame=11209 fps=989 q=-0.0 size=N/A time=00:07:47.50 bitrate=N/A speed=41.3x    frame=11833 fps=998 q=-0.0 size=N/A time=00:08:13.53 bitrate=N/A speed=41.6x    frame=12356 fps=999 q=-0.0 size=N/A time=00:08:35.34 bitrate=N/A speed=41.7x    frame=12854 fps=998 q=-0.0 size=N/A time=00:08:56.11 bitrate=N/A speed=41.6x    frame=13441 fps=1003 q=-0.0 size=N/A time=00:09:20.60 bitrate=N/A speed=41.8x    frame=14025 fps=1008 q=-0.0 size=N/A time=00:09:44.95 bitrate=N/A speed=  42x    frame=14543 fps=1008 q=-0.0 size=N/A time=00:10:06.56 bitrate=N/A speed=  42x    frame=15011 fps=1004 q=-0.0 size=N/A time=00:10:26.08 bitrate=N/A speed=41.9x    frame=15588 fps=1008 q=-0.0 size=N/A time=00:10:50.14 bitrate=N/A speed=  42x    frame=16071 fps=1006 q=-0.0 size=N/A time=00:11:10.29 bitrate=N/A speed=  42x    frame=16673 fps=1011 q=-0.0 size=N/A time=00:11:35.40 bitrate=N/A speed=42.2x    frame=17233 fps=1013 q=-0.0 size=N/A time=00:11:58.75 bitrate=N/A speed=42.2x    frame=17867 fps=1020 q=-0.0 size=N/A time=00:12:25.20 bitrate=N/A speed=42.5x    frame=18476 fps=1024 q=-0.0 size=N/A time=00:12:50.60 bitrate=N/A speed=42.7x    frame=19140 fps=1031 q=-0.0 size=N/A time=00:13:18.29 bitrate=N/A speed=  43x    frame=19735 fps=1035 q=-0.0 size=N/A time=00:13:43.11 bitrate=N/A speed=43.2x    frame=19974 fps=1020 q=-0.0 size=N/A time=00:13:53.08 bitrate=N/A speed=42.5x    frame=20393 fps=1014 q=-0.0 size=N/A time=00:14:10.55 bitrate=N/A speed=42.3x    frame=20970 fps=1017 q=-0.0 size=N/A time=00:14:34.62 bitrate=N/A speed=42.4x    frame=21439 fps=1014 q=-0.0 size=N/A time=00:14:54.18 bitrate=N/A speed=42.3x    frame=21887 fps=1011 q=-0.0 size=N/A time=00:15:12.87 bitrate=N/A speed=42.2x    frame=22293 fps=1005 q=-0.0 size=N/A time=00:15:29.80 bitrate=N/A speed=41.9x    frame=22886 fps=1009 q=-0.0 size=N/A time=00:15:54.53 bitrate=N/A speed=42.1x    frame=23453 fps=1011 q=-0.0 size=N/A time=00:16:18.18 bitrate=N/A speed=42.2x    frame=23914 fps=1008 q=-0.0 size=N/A time=00:16:37.41 bitrate=N/A speed=42.1x    frame=24451 fps=1009 q=-0.0 size=N/A time=00:16:59.81 bitrate=N/A speed=42.1x    frame=24990 fps=1010 q=-0.0 size=N/A time=00:17:22.29 bitrate=N/A speed=42.1x    frame=25612 fps=1014 q=-0.0 size=N/A time=00:17:48.23 bitrate=N/A speed=42.3x    frame=26246 fps=1018 q=-0.0 size=N/A time=00:18:14.67 bitrate=N/A speed=42.5x    frame=26918 fps=1024 q=-0.0 size=N/A time=00:18:42.70 bitrate=N/A speed=42.7x    frame=27545 fps=1027 q=-0.0 size=N/A time=00:19:08.85 bitrate=N/A speed=42.8x    frame=28156 fps=1031 q=-0.0 size=N/A time=00:19:34.33 bitrate=N/A speed=  43x    frame=28745 fps=1033 q=-0.0 size=N/A time=00:19:58.90 bitrate=N/A speed=43.1x    frame=29333 fps=1034 q=-0.0 size=N/A time=00:20:23.43 bitrate=N/A speed=43.1x    frame=29902 fps=1036 q=-0.0 size=N/A time=00:20:47.16 bitrate=N/A speed=43.2x    frame=30481 fps=1037 q=-0.0 size=N/A time=00:21:11.31 bitrate=N/A speed=43.3x    frame=31020 fps=1037 q=-0.0 size=N/A time=00:21:33.79 bitrate=N/A speed=43.3x    frame=31571 fps=1038 q=-0.0 size=N/A time=00:21:56.77 bitrate=N/A speed=43.3x    frame=32096 fps=1038 q=-0.0 size=N/A time=00:22:18.67 bitrate=N/A speed=43.3x    frame=32497 fps=1033 q=-0.0 size=N/A time=00:22:35.39 bitrate=N/A speed=43.1x    frame=33036 fps=1034 q=-0.0 size=N/A time=00:22:57.87 bitrate=N/A speed=43.1x    frame=33638 fps=1036 q=-0.0 size=N/A time=00:23:22.98 bitrate=N/A speed=43.2x    frame=34132 fps=1035 q=-0.0 size=N/A time=00:23:43.58 bitrate=N/A speed=43.2x    [Parsed_psnr_10 @ 000001ee02da0a00] PSNR y:33.539380 u:46.461767 v:48.768778 average:35.213207 min:4.527972 max:65.583652
[out#0/null @ 000001ee765afa00] video:14835KiB audio:270020KiB subtitle:0KiB other streams:0KiB global headers:0KiB muxing overhead: unknown
frame=34526 fps=1037 q=-0.0 Lsize=N/A time=00:24:00.02 bitrate=N/A speed=43.2x    
